<svg xmlns="http://www.w3.org/2000/svg" width="287.752" height="287.752" viewBox="0 0 287.752 287.752"><g id="Grupo_8" data-name="Grupo 8" transform="translate(-310.204 -322.455)"><g id="Grupo_7" data-name="Grupo 7"><g id="Grupo_5" data-name="Grupo 5"><circle id="Elipse_1" data-name="Elipse 1" cx="143.876" cy="143.876" r="143.876" transform="translate(310.204 322.455)" fill="#3096f5"></circle></g><g id="Grupo_6" data-name="Grupo 6"><path id="Caminho_1" data-name="Caminho 1" d="M487.85,370.346q-6.462-5.715-17.89-5.716a36.817,36.817,0,0,0-17.146,3.977,31.247,31.247,0,0,0-12.049,10.558,25.823,25.823,0,0,0-4.35,14.538,18.675,18.675,0,0,0,6.462,14.66q6.459,5.718,18.138,5.715a37.007,37.007,0,0,0,17.021-3.851,30.148,30.148,0,0,0,11.926-10.561,26.021,26.021,0,0,0,4.35-14.412A18.964,18.964,0,0,0,487.85,370.346Z" fill="#fff"></path><path id="Caminho_2" data-name="Caminho 2" d="M484.274,541.023s-22.9,9.133-20.83-2.639l15.69-88.906a18.094,18.094,0,0,0-17.819-21.238H417.693l-1.308,5.54s16.413.886,13.911,15.066c-5.7,32.281-16.086,91.155-16.1,91.211a23.661,23.661,0,0,0,7.366,21.5c8.889,8.067,21.092,7.537,31.86,4.1,3.592-1.147,34.872-15.142,34.824-15.256Z" fill="#fff"></path></g><path id="Caminho_3" data-name="Caminho 3" d="M537.185,348.92A143.837,143.837,0,0,1,336.67,549.436,143.852,143.852,0,1,0,537.185,348.92Z" fill="#272525" opacity="0.1"></path></g><path id="Caminho_4" data-name="Caminho 4" d="M486.314,343.464q.969,0,1.936.013A117.827,117.827,0,0,0,352.348,386a1.919,1.919,0,0,0-1.313,1.859v.029a116.522,116.522,0,0,0-20.288,65.873c0,.545.009,1.087.016,1.63A163.914,163.914,0,0,1,486.314,343.464Z" fill="#fff" opacity="0.2"></path></g></svg>